# xmcd CD database file
#
# Track frame offsets:
#	150
#	44226
#	131989
#	184045
#	230245
#	279470
#
# Disc length: 4181 seconds
#
# Revision: 0
# Processed by: cddbd v1.5.2PL0 Copyright (c) Steve Scherf et al.
# Submitted via: CDex 1.51
#
DISCID=60105306
DTITLE=Daniele Cavallanti Electric Unit - Smoke Inside
DYEAR=2006
DGENRE=Jazz
TTITLE0=Cline's Line
TTITLE1=Ahimsa
TTITLE2=Moods For Dewey
TTITLE3=Lonesome Drive
TTITLE4=Fabrizio's Mood
TTITLE5=Go On Moses
EXTD=YEAR: 2006
EXTT0=
EXTT1=
EXTT2=
EXTT3=
EXTT4=
EXTT5=
PLAYORDER=
